<?xml version="1.0" standalone="no"?>
<!DOCTYPE svg PUBLIC "-//W3C//DTD SVG 1.1//EN" "http://www.w3.org/Graphics/SVG/1.1/DTD/svg11.dtd" >
<svg xmlns="http://www.w3.org/2000/svg">
<metadata></metadata>
<defs>
<font id="titilliumthin" horiz-adv-x="1146" >
<font-face units-per-em="2048" ascent="1536" descent="-512" />
<missing-glyph horiz-adv-x="450" />
<glyph horiz-adv-x="2048" />
<glyph horiz-adv-x="2048" />
<glyph unicode="&#xd;" horiz-adv-x="2048" />
<glyph unicode=" "  horiz-adv-x="450" />
<glyph unicode="&#x09;" horiz-adv-x="450" />
<glyph unicode="&#xa0;" horiz-adv-x="450" />
<glyph unicode="!" horiz-adv-x="460" d="M190 0v164h82v-164h-82zM195 438v996h71v-996h-71z" />
<glyph unicode="&#x22;" horiz-adv-x="712" d="M152 1434h79l-6 -430h-67zM481 1434h80l-6 -430h-68z" />
<glyph unicode="#" d="M61 389v66h246v463h-246v65h246v389h74v-389h385v389h74v-389h245v-65h-245v-463h245v-66h-245v-389h-74v389h-385v-389h-74v389h-246zM381 455h385v463h-385v-463z" />
<glyph unicode="$" d="M164 1030q0 180 107 260t309 80q40 0 63 -2l33 250h72l-33 -254q55 -4 117 -10t96 -10l35 -5l-9 -67q-132 16 -249 24l-74 -569q95 -17 157 -38t110.5 -58.5t70.5 -96t22 -143.5q0 -219 -100 -312t-307 -93q-31 0 -49 2l-29 -234q-72 7 -72 15l29 221q-62 4 -135 10.5 t-116 11.5l-42 4l8 68q158 -21 293 -29l80 613q-68 11 -114.5 21.5t-94.5 29t-77.5 43.5t-54 61.5t-35.5 88t-11 118.5zM236 1034q0 -66 13.5 -112.5t36.5 -77t66.5 -51.5t89 -32.5t117.5 -23.5l76 566q-23 2 -55 2q-169 0 -256.5 -65t-87.5 -206zM543 51h39q169 0 253.5 79 t84.5 255q0 132 -66.5 187.5t-230.5 84.5z" />
<glyph unicode="%" d="M78 1098q0 272 211 272q99 0 155 -66t56 -208t-57 -212.5t-154 -70.5q-98 0 -154.5 70.5t-56.5 214.5zM150 1098q0 -219 139 -219q74 0 106.5 54.5t32.5 162.5q0 107 -32 158t-107 51q-74 0 -106.5 -51t-32.5 -156zM358 -2l379 1372l66 -18l-381 -1370zM649 266 q0 273 211 273q99 0 155 -66.5t56 -208.5t-57 -212t-154 -70q-98 0 -154.5 70t-56.5 214zM721 266q0 -219 139 -219q74 0 106.5 54.5t32.5 162.5q0 107 -32 158t-107 51q-74 0 -106.5 -51t-32.5 -156z" />
<glyph unicode="&#x26;" horiz-adv-x="1392" d="M96 426q0 95 19.5 162t63 114.5t102.5 78.5t149 57q-66 72 -85 133t-19 155q0 134 80 214.5t233 80.5q160 0 236.5 -79.5t76.5 -217.5q0 -148 -77.5 -230t-260.5 -142l383 -379q22 62 44 177t28 202h72q-9 -108 -35 -236t-53 -197l286 -280l-49 -53l-268 266 q-70 -142 -182 -206t-273 -64q-132 0 -225 30t-146 90t-76.5 138.5t-23.5 185.5zM168 428q0 -190 93.5 -284.5t309.5 -94.5q140 0 238.5 61.5t159.5 192.5l-486 481q-177 -47 -246 -122.5t-69 -233.5zM397 1126q0 -75 18.5 -136t73.5 -116l74 -73q179 61 248.5 128.5 t69.5 196.5q0 230 -242 230q-119 0 -180.5 -58t-61.5 -172z" />
<glyph unicode="'" horiz-adv-x="382" d="M152 1434h81l-10 -430h-67z" />
<glyph unicode="(" horiz-adv-x="479" d="M121 616q0 115 20.5 252t49.5 250.5t58 210.5t49 152l21 55h72q-8 -22 -21 -60t-46.5 -151t-59 -219.5t-46.5 -244t-21 -245.5q0 -107 20 -236t48.5 -237t57 -200.5t48.5 -145.5l20 -53h-72q-8 19 -21.5 52.5t-47.5 135.5t-60 201t-47.5 233.5t-21.5 249.5z" />
<glyph unicode=")" horiz-adv-x="479" d="M90 -256q8 20 21 55.5t46.5 140.5t59.5 205.5t47 232t21 238.5q0 108 -20 243t-48.5 249.5t-57.5 214t-49 156.5l-20 57h72q8 -21 21.5 -57.5t47.5 -147t60 -216t47.5 -245t21.5 -254.5t-20.5 -247t-49.5 -238.5t-58 -196.5t-50 -140l-20 -50h-72z" />
<glyph unicode="*" horiz-adv-x="854" d="M131 938l225 164l-223 164l41 55l225 -166l86 264l66 -20l-86 -266h276v-70h-280l86 -264l-66 -21l-86 266l-225 -161z" />
<glyph unicode="+" d="M121 479v70h414v434h73v-434h418v-70h-418v-438h-73v438h-414z" />
<glyph unicode="," horiz-adv-x="403" d="M90 -252l86 430h82l-104 -430h-64z" />
<glyph unicode="-" horiz-adv-x="937" d="M156 541v69h628v-69h-628z" />
<glyph unicode="." horiz-adv-x="389" d="M154 0v164h82v-164h-82z" />
<glyph unicode="/" horiz-adv-x="770" d="M68 25l567 1413l67 -29l-567 -1411z" />
<glyph unicode="0" d="M100 645q0 173 21 300.5t59 209t98 130.5t130 68t163 19q97 0 168 -19t131 -67.5t96.5 -130t57 -208t20.5 -300.5q0 -154 -21.5 -269.5t-60 -190.5t-98.5 -121t-130 -65t-161 -19q-76 0 -136.5 13t-115 42t-94.5 79.5t-69 123t-43.5 174t-14.5 231.5zM178 643 q0 -177 26 -295.5t80 -182.5t122.5 -89t166.5 -25q78 0 136 15.5t108.5 55t82 106t49.5 171.5t18 248q0 156 -16 269.5t-46.5 188t-80 118.5t-110 62t-143.5 18q-82 0 -141 -17.5t-109 -61t-80 -118t-46.5 -189.5t-16.5 -274z" />
<glyph unicode="1" d="M264 1073l418 279h74v-1352h-74v1272l-383 -258z" />
<glyph unicode="2" d="M147 0v63l465 496q61 64 92.5 98.5t72.5 86.5t59.5 90.5t32.5 88t14 101.5q0 150 -85.5 213t-258.5 63q-69 0 -161.5 -13t-149.5 -27l-58 -13l-10 70q21 6 58 15t138 23.5t185 14.5q209 0 314.5 -80t105.5 -266q0 -73 -17 -134t-57.5 -123t-81 -109t-113.5 -123 l-444 -469h756v-66h-857z" />
<glyph unicode="3" d="M135 29l12 69q216 -47 433 -47q179 1 263.5 80t84.5 236q0 88 -26 150t-74.5 95t-103.5 48.5t-128 19.5h-274v70h272q44 0 93.5 17.5t95.5 50.5t76 90t30 128q0 146 -73 206.5t-253 60.5q-90 0 -187.5 -11.5t-149.5 -23.5l-52 -11l-12 70q194 45 399 45q218 0 312 -81 t94 -257q0 -71 -24 -129t-57 -90.5t-69 -54.5t-57 -29.5t-25 -7.5q51 -14 88 -29t73.5 -41.5t59 -62.5t36.5 -91t14 -126q0 -198 -105 -294.5t-321 -96.5q-98 0 -209.5 12t-173.5 24z" />
<glyph unicode="4" d="M82 291v61l420 1000h80l-412 -992h623v449h73v-449h201v-69h-201v-291h-73v291h-711z" />
<glyph unicode="5" d="M147 35l11 69q225 -49 415 -49q170 0 270.5 102.5t100.5 293.5q0 92 -26 156.5t-75 100t-109.5 51t-139.5 15.5q-82 0 -173.5 -28t-142.5 -56l-51 -28l-69 8l39 682h761v-74h-692l-37 -539q7 4 20 11t54 25.5t82 32t99.5 25t111.5 11.5q99 0 175 -20.5t133.5 -65.5 t87.5 -122.5t30 -184.5q0 -231 -118 -348t-329 -117q-91 0 -198 12t-169 24z" />
<glyph unicode="6" d="M123 690q0 344 133.5 512t370.5 168q76 0 163 -5t136 -10l49 -5l-8 -68q-168 18 -340 18q-202 0 -313.5 -144.5t-112.5 -422.5l23 9q23 10 64 24.5t89.5 29t107.5 25t109 10.5q221 0 333.5 -101.5t112.5 -303.5q0 -210 -117.5 -327t-340.5 -117q-233 0 -346 183.5 t-113 524.5zM199 662q2 -137 24 -245t66.5 -192t118.5 -129t174 -45q186 0 283.5 96t97.5 279q0 168 -97.5 252t-273.5 84q-84 0 -182 -25t-154 -50z" />
<glyph unicode="7" d="M170 1282v70h823v-133l-549 -1237l-71 28l542 1225v47h-745z" />
<glyph unicode="8" d="M70 344q0 82 19.5 143t60 103t84.5 68.5t112 54.5q-127 44 -190.5 118t-63.5 205q0 170 124.5 253t352.5 83t357 -83t129 -255q0 -132 -68 -206t-211 -115q143 -41 221 -120t78 -226q0 -89 -26.5 -157t-71 -110.5t-110.5 -69.5t-138 -37.5t-160 -10.5q-83 0 -154 11 t-135.5 37.5t-110 67t-72.5 103.5t-27 143zM150 346q0 -66 22 -117.5t59.5 -84.5t92 -54.5t114.5 -30t131 -8.5q96 0 169.5 14.5t134 49t92.5 97.5t32 153q0 46 -9 84t-23.5 66t-39.5 51t-49 38.5t-60.5 29.5t-65.5 22.5t-72 19.5h-240q-144 -35 -216 -109t-72 -221z M170 1034q0 -120 64.5 -186.5t203.5 -104.5h240q149 36 223 103t74 186q0 145 -104 208t-302 63q-96 0 -167 -13.5t-124.5 -44.5t-80.5 -83.5t-27 -127.5z" />
<glyph unicode="9" d="M102 924q0 203 123 324.5t328 121.5q161 0 267.5 -88t154 -243t47.5 -375q0 -190 -34 -323.5t-102.5 -211.5t-160.5 -112.5t-219 -34.5q-76 0 -163 5.5t-136 10.5l-49 6l8 68q168 -21 340 -21q218 0 326.5 135.5t111.5 427.5q-26 -10 -70 -25t-154 -40t-190 -25 q-213 0 -320.5 97t-107.5 303zM180 924q0 -172 88.5 -251t266.5 -79q72 0 174.5 23t169.5 46l67 23q-13 614 -393 614q-171 0 -272 -102t-101 -274z" />
<glyph unicode=":" horiz-adv-x="391" d="M154 0v164h82v-164h-82zM154 705v163h82v-163h-82z" />
<glyph unicode=";" horiz-adv-x="466" d="M127 -252h63l107 430h-86zM205 705v163h82v-163h-82z" />
<glyph unicode="&#x3c;" d="M117 477v74l868 442v-80l-801 -399l801 -399v-84z" />
<glyph unicode="=" d="M139 305v70h869v-70h-869zM139 651v70h869v-70h-869z" />
<glyph unicode="&#x3e;" d="M160 31v84l801 399l-801 399v80l868 -442v-74z" />
<glyph unicode="?" horiz-adv-x="927" d="M84 1397q229 55 340 55q204 0 307 -75t103 -249q0 -124 -37.5 -190t-169.5 -182q-46 -40 -63 -55.5t-51 -51.5t-48 -59t-26.5 -56.5t-12.5 -66.5v-78h-70q-2 45 -2 84q0 32 7.5 62.5t27 61.5t34 52.5t47.5 54.5t48.5 47.5t54.5 49.5q79 71 115.5 113.5t55 92.5t18.5 121 q0 142 -83 199t-255 57q-44 0 -126.5 -14t-143.5 -28l-60 -15zM350 2v164h82v-164h-82z" />
<glyph unicode="@" horiz-adv-x="2004" d="M123 535q0 258 56 438.5t172 290.5t282.5 159.5t398.5 49.5q234 0 398 -50t267 -156.5t150 -263t47 -378.5v-35q0 -173 -17.5 -290.5t-42 -180.5t-73.5 -94.5t-88.5 -38t-111.5 -6.5q-55 0 -98 13.5t-65 32t-36 37.5t-18 33l-3 13q-9 -5 -25 -13.5t-64 -30.5t-93 -39 t-104 -30.5t-105 -13.5q-26 0 -45.5 1t-49 6.5t-52 15.5t-50 28.5t-47.5 44t-40 65.5t-33 89t-21 117t-8 149q0 138 20 234.5t68.5 168.5t133 106.5t208.5 34.5q52 0 120 -14t110 -28l41 -13v37h71v-410q0 -109 0.5 -174t4 -132.5t8.5 -102.5t16 -70.5t23.5 -49.5 t34.5 -26.5t46.5 -15t61.5 -2.5q29 0 47.5 1.5t43 7t39.5 16t33.5 30t29.5 47.5t23 69t18 95t10 125t4 158v37q0 207 -41.5 351t-135 241.5t-243.5 142.5t-367 45q-218 0 -370 -44.5t-258 -146.5t-155.5 -269.5t-49.5 -411.5q0 -204 33 -352.5t96.5 -249.5t166 -162t232 -87 t305.5 -26q36 0 109.5 5t128.5 10l55 5l6 -67q-201 -19 -299 -19q-157 0 -278.5 18.5t-226 61.5t-177.5 114.5t-125.5 175.5t-77 246.5t-24.5 326.5zM676 492q0 -117 18 -202.5t44.5 -131t66 -72t72 -33t73.5 -6.5q63 0 157 30.5t157 61.5l63 31q-22 233 -22 444v308 q-150 55 -271 55q-107 0 -178.5 -31t-110 -96t-54 -149.5t-15.5 -208.5z" />
<glyph unicode="A" horiz-adv-x="1212" d="M57 0l441 1434h217l440 -1434h-74l-133 440h-684l-133 -440h-74zM287 510h639l-262 854h-115z" />
<glyph unicode="B" horiz-adv-x="1269" d="M188 0v1434h492q207 0 310.5 -87.5t103.5 -267.5q0 -267 -199 -340q254 -70 254 -344q0 -114 -30 -192.5t-89 -122t-134 -62t-177 -18.5h-531zM262 70h457q171 0 262.5 73t91.5 252q0 60 -15.5 108.5t-39 79t-59 53.5t-67 34.5t-71.5 18t-65 8t-54 1.5h-440v-628z M262 768h440q165 0 240.5 76t75.5 235q0 148 -82.5 216.5t-255.5 68.5h-418v-596z" />
<glyph unicode="C" horiz-adv-x="1116" d="M137 711q0 120 7.5 210.5t27.5 179t56.5 149.5t92 108.5t137.5 70.5t189 23q175 0 379 -39l-6 -72q-200 41 -373 41q-81 0 -145 -16.5t-109 -44.5t-77.5 -75t-52 -98.5t-30.5 -125.5t-14.5 -144.5t-3.5 -166.5q0 -95 4 -166.5t15.5 -143t31.5 -122.5t52.5 -96.5t78 -73 t108 -43t142.5 -15.5q156 0 373 41l6 -69q-209 -41 -379 -41q-125 0 -215 33t-147 91.5t-90 152.5t-45.5 200.5t-12.5 251.5z" />
<glyph unicode="D" horiz-adv-x="1329" d="M188 0v1434h533q105 0 188 -38.5t136.5 -104t89 -156.5t50.5 -190.5t15 -211.5q0 -113 -15 -215t-50.5 -198t-89 -166t-137 -112t-187.5 -42h-533zM262 70h459q74 0 136 27.5t105 76.5t74.5 112t50 139t27 152t8.5 156t-8.5 153.5t-27 146t-50 131.5t-74.5 104.5 t-104.5 70.5t-136.5 25h-459v-1294z" />
<glyph unicode="E" horiz-adv-x="1130" d="M188 0v1434h838v-70h-764v-596h641v-70h-641v-628h764v-70h-838z" />
<glyph unicode="F" horiz-adv-x="1071" d="M188 0v1434h822v-70h-748v-647h643v-70h-643v-647h-74z" />
<glyph unicode="G" horiz-adv-x="1267" d="M133 711q0 142 14 249.5t50 203t95.5 157t154.5 96.5t223 35q96 0 208.5 -13t177.5 -25l64 -13l-6 -72q-258 53 -444 53q-95 0 -167.5 -20.5t-122.5 -63t-83.5 -98t-52 -134.5t-26 -162.5t-7.5 -192.5q0 -108 8 -192t27 -161t53 -131.5t84 -95t122 -60.5t165 -20 q146 0 377 41v549h-308v70h381v-678q-81 -15 -221 -33t-229 -18q-125 0 -218 33t-153.5 92t-98 151.5t-52.5 201.5t-15 251z" />
<glyph unicode="H" horiz-adv-x="1380" d="M188 0v1434h74v-680h856v680h74v-1434h-74v684h-856v-684h-74z" />
<glyph unicode="I" horiz-adv-x="450" d="M188 0v1434h74v-1434h-74z" />
<glyph unicode="J" horiz-adv-x="573" d="M37 -80q43 0 66.5 0.5t54.5 2.5t46 5.5t35 11t28.5 17t20 25.5t15 35t8 47t5.5 59t1 74v1237h74v-1268q0 -46 -3 -83.5t-10.5 -67.5t-16 -53t-24.5 -40t-30 -29t-39.5 -20t-45.5 -12.5t-54 -7t-60.5 -3t-70.5 -0.5v70z" />
<glyph unicode="K" horiz-adv-x="1132" d="M188 0v1434h74v-691h264l451 691h88l-473 -721l506 -713h-94l-474 674h-268v-674h-74z" />
<glyph unicode="L" horiz-adv-x="989" d="M188 0v1434h74v-1364h699v-70h-773z" />
<glyph unicode="M" horiz-adv-x="1695" d="M188 0v1434h156l504 -1321l504 1321h155v-1434h-73v1364h-29l-504 -1321h-106l-504 1321h-29v-1364h-74z" />
<glyph unicode="N" horiz-adv-x="1361" d="M188 0v1434h174l682 -1364h56v1364h74v-1434h-175l-684 1364h-53v-1364h-74z" />
<glyph unicode="O" horiz-adv-x="1363" d="M133 711q0 147 15 257.5t52.5 204.5t99 153.5t157 92.5t225.5 33t225.5 -32.5t157 -92t99 -153t52.5 -204.5t15 -259q0 -155 -15 -267t-51.5 -203t-99 -146t-157 -84t-226.5 -29q-131 0 -226.5 31t-157.5 88t-99 149t-51.5 202t-14.5 259zM211 711q0 -138 11 -235 t41 -182t82.5 -135.5t136 -79t200.5 -28.5q99 0 172.5 17t125.5 54.5t85.5 88.5t53 129t27 165t7.5 206q0 134 -12 233.5t-43 185t-83.5 139t-135.5 83.5t-197 30q-115 0 -198 -29.5t-135.5 -82.5t-83.5 -139t-42.5 -185t-11.5 -235z" />
<glyph unicode="P" horiz-adv-x="1218" d="M188 0v1434h523q221 0 322.5 -108t101.5 -333q0 -467 -424 -467h-449v-526h-74zM262 596h449q346 0 346 397q0 189 -81.5 280t-264.5 91h-449v-768z" />
<glyph unicode="Q" horiz-adv-x="1363" d="M133 711q0 147 15 257.5t52.5 204.5t99 153.5t157 92.5t225.5 33t225.5 -32.5t157 -92t99 -153t52.5 -204.5t15 -259q0 -280 -54.5 -441t-193.5 -231l176 -287l-74 -35l-178 293q-98 -28 -225 -28q-131 0 -226.5 31t-157.5 88t-99 149t-51.5 202t-14.5 259zM211 711 q0 -138 11 -235t41 -182t82.5 -135.5t136 -79t200.5 -28.5q99 0 172.5 17t125.5 54.5t85.5 88.5t53 129t27 165t7.5 206q0 134 -12 233.5t-43 185t-83.5 139t-135.5 83.5t-197 30q-115 0 -198 -29.5t-135.5 -82.5t-83.5 -139t-42.5 -185t-11.5 -235z" />
<glyph unicode="R" horiz-adv-x="1255" d="M188 0v1434h514q216 0 321 -98.5t105 -311.5q0 -363 -297 -420l324 -604h-84l-319 594h-490v-594h-74zM262 664h440q349 0 349 360q0 178 -84 259t-265 81h-440v-700z" />
<glyph unicode="S" horiz-adv-x="1105" d="M115 1096q0 190 114 275t328 85q70 0 172 -8t169 -16l67 -9l-9 -71q-280 34 -399 34q-180 0 -272 -68t-92 -218q0 -47 5.5 -84t19 -66t28.5 -50.5t43 -39t53 -28.5t67.5 -21.5t77.5 -17t91 -15.5q88 -14 148 -29.5t114.5 -42t86 -64t50 -94t18.5 -132.5q0 -232 -107 -331 t-327 -99q-68 0 -177.5 8t-185.5 16l-75 8l8 72q283 -35 428 -35q180 0 269.5 84t89.5 271q0 78 -19.5 128.5t-67 83t-108.5 50t-164 33.5q-52 8 -89.5 15t-79.5 17t-71 21.5t-60 28t-51.5 36.5t-39.5 47t-29.5 60t-17 74.5t-6.5 91.5z" />
<glyph unicode="T" horiz-adv-x="1077" d="M27 1364v70h1024v-70h-473v-1364h-74v1364h-477z" />
<glyph unicode="U" horiz-adv-x="1306" d="M180 401v1033h74v-1033q0 -186 100 -268t289 -82q203 0 306.5 81t103.5 269v1033h73v-1033q0 -223 -121.5 -321t-361.5 -98q-226 0 -344.5 98t-118.5 321z" />
<glyph unicode="V" horiz-adv-x="1163" d="M61 1434h74l381 -1364h131l381 1364h74l-402 -1434h-237z" />
<glyph unicode="W" horiz-adv-x="1753" d="M78 1434h74l286 -1364h80l313 1343h91l313 -1343h80l287 1364h73l-301 -1434h-196l-301 1313l-302 -1313h-196z" />
<glyph unicode="X" horiz-adv-x="1128" d="M51 0l463 711l-463 723h88l426 -668l424 668h88l-456 -723l456 -711h-88l-422 659l-428 -659h-88z" />
<glyph unicode="Y" horiz-adv-x="1077" d="M35 1434h86l418 -736l417 736h86l-467 -818v-616h-73v616z" />
<glyph unicode="Z" horiz-adv-x="1103" d="M90 -2v141l846 1176v49h-846v70h922v-144l-846 -1177v-45h846v-70h-922z" />
<glyph unicode="[" horiz-adv-x="636" d="M176 -252v1786h373v-66h-301v-1654h301v-66h-373z" />
<glyph unicode="\" horiz-adv-x="808" d="M59 1407l72 29l617 -1407l-72 -29z" />
<glyph unicode="]" horiz-adv-x="636" d="M88 -186h301v1654h-301v66h373v-1786h-373v66z" />
<glyph unicode="^" d="M168 662l369 690h73l387 -690h-82l-342 616l-323 -616h-82z" />
<glyph unicode="_" horiz-adv-x="1310" d="M217 -213h877v-70h-877v70z" />
<glyph unicode="`" horiz-adv-x="440" d="M20 1436l33 63l393 -196l-30 -56z" />
<glyph unicode="a" horiz-adv-x="1013" d="M98 281q0 133 67.5 206t215.5 88l389 41v107q0 131 -56 190.5t-171 59.5q-67 0 -163.5 -8.5t-159.5 -17.5l-64 -9l-6 68q229 36 393 36q154 0 226.5 -79.5t72.5 -239.5v-590q8 -74 153 -86l-4 -63q-150 0 -211 86q-23 -10 -63.5 -24.5t-149.5 -39t-200 -24.5 q-128 0 -198.5 76t-70.5 223zM174 281q0 -112 50.5 -173t144.5 -61q86 0 186 21t157 42l58 21v420l-381 -39q-117 -12 -166 -67t-49 -164z" />
<glyph unicode="b" horiz-adv-x="1052" d="M160 0v1495h71v-534q19 9 52.5 22.5t126.5 36t174 22.5q104 0 172 -30t107 -96.5t54 -158t15 -229.5q0 -120 -12 -204.5t-42.5 -152.5t-83.5 -108t-134 -60.5t-195 -20.5q-62 0 -138 4.5t-121 9.5zM231 59q160 -12 232 -12q73 0 129.5 9.5t98 27.5t70.5 49t48 67t29 89 t14 108t4 131q0 96 -6.5 163.5t-24 124.5t-48 90.5t-78 52t-115.5 18.5q-81 0 -169 -20.5t-136 -40.5l-48 -21v-836z" />
<glyph unicode="c" horiz-adv-x="878" d="M123 535q0 282 94.5 394.5t325.5 112.5q35 0 96 -5t105 -10l44 -5l-4 -66q-163 21 -241 21q-195 0 -269.5 -98t-74.5 -344q0 -93 5 -159t19.5 -123.5t38.5 -94t62.5 -63t92 -37.5t126.5 -11q35 0 96 4.5t105 9.5l44 5l5 -66q-172 -18 -250 -18q-87 0 -150 12t-110.5 40.5 t-78 69.5t-48.5 105t-25.5 141.5t-7.5 184.5z" />
<glyph unicode="d" horiz-adv-x="1054" d="M119 496q0 138 20.5 235t69 169t133.5 107t209 35q117 0 270 -24v477h72v-1495h-72v86q-7 -4 -19.5 -11t-51.5 -25t-78.5 -32t-96 -25t-108.5 -11q-26 0 -45.5 1t-49.5 6.5t-52 15t-50 28t-48 44t-40.5 65t-33.5 88.5t-21 117t-8 149zM195 496q0 -86 9.5 -155t24 -115 t37.5 -80t45.5 -52.5t51.5 -29.5t52 -14t52 -3q49 0 103.5 11t97.5 26.5t78.5 31.5t55.5 27l19 11v798q-166 25 -270 25q-86 0 -148.5 -21.5t-102.5 -59.5t-63.5 -99.5t-32.5 -132.5t-9 -168z" />
<glyph unicode="e" horiz-adv-x="1028" d="M119 512q0 530 413 530q195 0 292.5 -116t97.5 -375v-68h-727q0 -223 69.5 -329.5t241.5 -106.5q64 0 157 4.5t155 9.5l61 5l4 -66q-229 -18 -379 -18q-90 1 -157 24.5t-110.5 66t-70 109.5t-37 146t-10.5 184zM195 549h651q0 230 -75.5 329t-238.5 99q-337 0 -337 -428z " />
<glyph unicode="f" horiz-adv-x="641" d="M59 958v66h142v125q0 111 14 181.5t47 111t79.5 56t119.5 15.5l188 -6v-63q-131 4 -188 4q-73 0 -112 -24t-58 -89t-19 -188v-123h332v-66h-332v-958h-71v958h-142z" />
<glyph unicode="g" horiz-adv-x="1026" d="M119 -164q0 49 10 85t37 68t51 52t76 57q-45 27 -45 133q0 14 15 54t31 73l15 33q-176 58 -176 311q0 342 350 342q49 0 103.5 -6.5t83.5 -13.5l30 -6l287 6v-72h-221q41 -38 61.5 -94t20.5 -156q0 -184 -89 -259.5t-284 -75.5q-60 0 -110 8q-48 -117 -48 -144 q0 -28 1.5 -43t12 -29.5t25.5 -20t50.5 -10.5t77 -6t114.5 -1q82 0 136 -6.5t100.5 -24.5t72.5 -51t40 -85t14 -128q0 -166 -104 -240.5t-333 -74.5q-86 0 -148 7t-108 24t-74 40.5t-45 62t-23.5 83t-6.5 108.5zM193 -162q0 -78 12 -124t48.5 -79.5t101 -46t171.5 -12.5 q190 0 274.5 59t84.5 191q0 52 -6.5 89t-23.5 62.5t-37.5 40.5t-56.5 23.5t-73 11t-94 2.5l-248 6q-91 -63 -122 -107t-31 -116zM207 702q0 -151 63 -210.5t211 -59.5q162 0 226.5 58.5t64.5 211.5q0 154 -65 215.5t-226 61.5q-147 0 -210.5 -62.5t-63.5 -214.5z" />
<glyph unicode="h" horiz-adv-x="1077" d="M162 0v1495h71v-532q20 9 55 22t129.5 35t172.5 22q71 0 122 -10t89 -34.5t61.5 -61t38 -96.5t20 -132t5.5 -176v-532h-72v528q0 111 -6 181t-21.5 126.5t-46 85t-76 42.5t-114.5 14q-81 0 -170 -20.5t-138 -40.5l-49 -21v-895h-71z" />
<glyph unicode="i" horiz-adv-x="395" d="M162 0v1024h71v-1024h-71zM162 1321v113h71v-113h-71z" />
<glyph unicode="j" horiz-adv-x="393" d="M-121 -383q75 41 119.5 70t80 61.5t51.5 69.5t24 82.5t8 111.5v1012h71v-1014q0 -173 -64 -264.5t-261 -191.5zM162 1321v113h71v-113h-71z" />
<glyph unicode="k" horiz-adv-x="931" d="M162 0v1495h71v-903h197l352 432h86l-376 -463l393 -561h-86l-369 526h-197v-526h-71z" />
<glyph unicode="l" horiz-adv-x="419" d="M174 0v1495h72v-1495h-72z" />
<glyph unicode="m" horiz-adv-x="1708" d="M162 0v1024h71v-82q7 4 18.5 11t48.5 24t75 30t91.5 24t102.5 11q113 0 175.5 -25.5t99.5 -84.5q7 4 20 11.5t54.5 26.5t83.5 33.5t102.5 26.5t116.5 12q86 0 142.5 -16t95.5 -48.5t59.5 -95t29 -144t8.5 -206.5v-532h-71v528q0 111 -6 181t-21.5 126.5t-46 85t-76 42.5 t-114.5 14q-88 0 -176.5 -25t-132.5 -50l-44 -25q37 -100 37 -345v-532h-71v528q0 92 -4 154.5t-14.5 116t-28.5 85t-48.5 54t-71 31t-98.5 8.5q-51 0 -104.5 -10.5t-93 -25.5t-72 -30.5t-49.5 -26.5l-17 -10v-874h-71z" />
<glyph unicode="n" horiz-adv-x="1079" d="M162 0v1024h71v-82q7 4 20.5 11t54.5 24t82 30t97 24t105 11q71 0 122 -10t89 -34.5t61.5 -61t38 -96.5t20 -132t5.5 -176v-532h-72v528q0 111 -6 181t-21.5 126.5t-46 85t-76 42.5t-114.5 14q-51 0 -106.5 -10.5t-99 -25.5t-79 -30.5t-55.5 -26.5l-19 -10v-874h-71z" />
<glyph unicode="o" horiz-adv-x="1077" d="M123 530q0 283 94 397.5t322 114.5t321.5 -114.5t93.5 -397.5q0 -162 -17 -261t-64 -166.5t-126.5 -94t-207.5 -26.5t-207.5 26.5t-127 94t-64.5 167t-17 260.5zM199 530q0 -96 4 -159t17 -122t35.5 -93.5t60.5 -61t92.5 -37t130.5 -10.5t130.5 10.5t92.5 37t60.5 61 t35.5 93.5t17 122t4 159q0 176 -31 270.5t-103 135.5t-206 41t-206 -41t-103 -135.5t-31 -270.5z" />
<glyph unicode="p" horiz-adv-x="1056" d="M162 -471v1495h71v-86q7 4 19.5 11t51.5 25t79 32t96.5 25t108.5 11q185 0 267.5 -124.5t82.5 -389.5q0 -289 -99.5 -417.5t-334.5 -128.5q-139 0 -271 28v-481h-71zM233 76q163 -29 271 -29q197 0 277.5 109.5t80.5 371.5q0 240 -68.5 344.5t-205.5 104.5 q-78 0 -167 -27.5t-139 -54.5l-49 -27v-792z" />
<glyph unicode="q" horiz-adv-x="1052" d="M119 496q0 146 22.5 245t76 168.5t143.5 101t225 31.5q44 0 120 -4.5t130 -9.5l55 -4v-1495h-72v530q-17 -9 -47 -21.5t-117 -34t-168 -21.5q-203 0 -285.5 124t-82.5 390zM195 496q0 -229 64.5 -339t227.5 -110q81 0 164 20.5t125 40.5l43 21v836q-159 12 -231 12 q-120 0 -197.5 -28.5t-120 -92t-59 -147.5t-16.5 -213z" />
<glyph unicode="r" horiz-adv-x="671" d="M162 0v1024h71v-160q7 6 20.5 15.5t57 35t88.5 48t111 46t129 35.5v-73q-89 -18 -190.5 -61.5t-158.5 -77.5l-57 -35v-797h-71z" />
<glyph unicode="s" horiz-adv-x="944" d="M104 768q0 63 21 111.5t54.5 78.5t80.5 49.5t94.5 27t100.5 7.5q70 0 158 -7.5t141 -14.5l53 -8l-4 -68q-209 33 -348 33q-54 0 -99 -9t-86.5 -30.5t-65.5 -64t-24 -101.5q0 -49 12 -80t46 -55t87.5 -39t145.5 -29q89 -14 143 -26.5t103 -32.5t74 -48t39 -68.5t14 -98.5 q0 -172 -98 -242.5t-291 -70.5q-52 0 -136.5 8t-142.5 16l-59 8l8 68q222 -35 326 -35q158 0 237.5 51.5t79.5 190.5q0 56 -14 90t-54.5 58t-94.5 37t-154 28q-79 12 -129 23.5t-96 31t-70 46.5t-38 67.5t-14 97.5z" />
<glyph unicode="t" horiz-adv-x="700" d="M59 958v66h162v334h72v-334h373v-66h-373v-536q0 -82 2.5 -134.5t9.5 -98.5t19.5 -70.5t34 -43t50.5 -24.5t72 -6q25 0 75.5 4t87.5 8l38 4l6 -65q-135 -16 -207 -16q-73 0 -119.5 15.5t-79.5 56t-47 111t-14 181.5v614h-162z" />
<glyph unicode="u" horiz-adv-x="1056" d="M152 492v532h71v-528q0 -111 6 -181t21.5 -126.5t46 -85t76 -42.5t114.5 -14q51 0 104.5 10.5t93 25.5t72 30.5t49.5 26.5l17 10v874h72v-1024h-72v82q-7 -4 -18.5 -11t-48.5 -24t-75 -30t-91.5 -24t-102.5 -11q-86 0 -142.5 16t-95.5 48.5t-59.5 95t-29 144t-8.5 206.5z " />
<glyph unicode="v" horiz-adv-x="962" d="M63 1024h84l289 -958h90l297 958h76l-317 -1024h-201z" />
<glyph unicode="w" horiz-adv-x="1548" d="M74 1024h76l260 -958h22l303 938h78l303 -938h23l260 958h76l-277 -1024h-139l-285 918l-285 -918h-139z" />
<glyph unicode="x" horiz-adv-x="894" d="M57 0l346 512l-346 512h84l305 -457l308 457h84l-349 -512l347 -512h-84l-306 457l-305 -457h-84z" />
<glyph unicode="y" horiz-adv-x="964" d="M63 1024h76l301 -958h84l303 958h76l-469 -1495h-76l148 471h-125z" />
<glyph unicode="z" horiz-adv-x="931" d="M86 0v66l670 892h-670v66h760v-66l-668 -892h668v-66h-760z" />
<glyph unicode="{" horiz-adv-x="708" d="M59 602v66q116 29 164.5 86t48.5 159q0 26 -7 124.5t-7 138.5q0 185 82.5 270t277.5 92l5 -65q-167 -7 -230 -78.5t-63 -218.5q0 -35 7 -125.5t7 -118.5q0 -132 -45 -194.5t-160 -100.5q114 -37 159.5 -100.5t45.5 -190.5q-1 -21 -7.5 -105.5t-6.5 -131.5 q0 -145 63.5 -217.5t229.5 -79.5l-5 -66q-194 7 -277 92.5t-83 270.5q0 44 7 136.5t7 114.5q0 98 -48 153t-165 89z" />
<glyph unicode="|" horiz-adv-x="419" d="M174 -471v1966h72v-1966h-72z" />
<glyph unicode="}" horiz-adv-x="708" d="M86 -188q166 7 229.5 79.5t63.5 217.5q0 47 -6.5 131.5t-7.5 105.5q0 128 45 191t159 100q-115 37 -159.5 99.5t-44.5 195.5q0 28 7 118.5t7 125.5q0 147 -63 218.5t-230 78.5l4 65q195 -7 278 -92t83 -270q0 -40 -7.5 -138.5t-7.5 -124.5q0 -102 48.5 -159t164.5 -86 v-66q-117 -34 -165 -89t-48 -153q0 -22 7.5 -114.5t7.5 -136.5q0 -185 -83 -270.5t-278 -92.5z" />
<glyph unicode="~" d="M145 543q14 12 38 30.5t85.5 49t106.5 30.5q49 0 131 -37.5t158.5 -74.5t113.5 -37q33 0 85 26.5t88 53.5l36 26l23 -63q-5 -5 -14.5 -12.5t-37 -27t-54 -34.5t-61 -27t-63.5 -12q-50 0 -131.5 37.5t-158 75t-113.5 37.5q-33 0 -85 -27t-88 -53l-36 -27z" />
<glyph unicode="&#xa1;" horiz-adv-x="417" d="M166 860v164h82v-164h-82zM172 -410v996h72v-996h-72z" />
<glyph unicode="&#xa2;" d="M223 506q0 229 84 330.5t273 107.5v266h71v-268q41 0 100.5 -6t98.5 -12l39 -6l-4 -68q-164 20 -283 20q-165 0 -231 -82.5t-66 -281.5q0 -204 65 -276t253 -72q53 0 119.5 4t106.5 8l40 4l4 -72q-152 -16 -240 -18v-258h-71v258q-79 3 -134.5 15.5t-100.5 40.5t-71 75.5 t-39.5 119t-13.5 171.5z" />
<glyph unicode="&#xa3;" d="M170 0v70h188v696h-141v65h141v107q0 134 14 217t49.5 131.5t85.5 66t132 17.5q35 0 96.5 -6t105.5 -12l44 -6v-66q-178 25 -246 25q-87 0 -130 -31t-61 -109t-18 -235v-99h373v-65h-373v-696h356l168 32l15 -65l-168 -37h-631z" />
<glyph unicode="&#xa4;" d="M158 154l145 143q-78 94 -78 219t78 219l-145 144l53 53l143 -146q94 78 219 78q126 0 220 -78l143 146l53 -53l-145 -144q78 -94 78 -219t-78 -219l145 -143l-53 -54l-143 146q-94 -78 -220 -78q-125 0 -219 78l-143 -146zM299 516q0 -112 80.5 -193t193.5 -81t194 81 t81 193t-81 193.5t-194 81.5q-112 0 -193 -81t-81 -194z" />
<glyph unicode="&#xa5;" d="M72 1352h84l419 -633l414 633h86l-391 -604h344v-70h-389l-27 -41v-195h418v-69h-418v-373h-73v373h-420v69h420v195l-27 41h-395v70h350z" />
<glyph unicode="&#xa6;" horiz-adv-x="428" d="M178 299h72v-770h-72v770zM178 725v770h72v-770h-72z" />
<glyph unicode="&#xa7;" horiz-adv-x="997" d="M127 580q0 39 11.5 78.5t27.5 68t32.5 51.5t27.5 35l12 12q-91 69 -91 234q0 145 94 219t265 74q57 0 137 -7t131 -13l51 -7l-4 -65q-217 26 -315 26q-287 0 -287 -225q0 -56 13 -96t34 -65.5t62.5 -43t83 -27t110.5 -20.5q87 -14 143.5 -31t104.5 -48.5t70 -82.5 t22 -125q0 -59 -20 -124t-40 -100l-20 -36q74 -59 74 -190q0 -159 -91.5 -241.5t-262.5 -82.5q-55 0 -141 7t-145 13l-58 7l6 65q225 -28 338 -28q137 0 209.5 64.5t72.5 193.5q0 36 -7 64t-17.5 48t-32.5 35.5t-41 25t-56.5 18t-64.5 13t-78 11.5q-92 13 -154.5 32t-111 52 t-71.5 85t-23 126zM199 584q0 -111 71 -161t232 -73q165 -25 227 -55q7 12 17.5 32.5t27.5 79t17 109.5q0 50 -14 86.5t-35 59t-61 39t-76.5 25t-96.5 17.5q-158 25 -219 54q-10 -12 -25 -33t-40 -77.5t-25 -102.5z" />
<glyph unicode="&#xa8;" horiz-adv-x="440" d="M0 1307v127h72v-127h-72zM389 1307v127h72v-127h-72z" />
<glyph unicode="&#xa9;" horiz-adv-x="1325" d="M139 889q0 149 67.5 274t188 198t267.5 73q148 0 268.5 -73t188 -198t67.5 -274t-67.5 -273.5t-188 -197t-268.5 -72.5t-268 72.5t-187.5 197t-67.5 273.5zM205 889q0 -200 130.5 -338.5t326.5 -138.5t327 138.5t131 338.5t-131 339.5t-327 139.5t-326.5 -139.5 t-130.5 -339.5zM438 887q0 59 5.5 104.5t20.5 86.5t39.5 67t64.5 41.5t94 15.5q35 0 72.5 -3.5t57.5 -6.5l21 -4l-2 -66q-83 15 -149 15q-42 0 -71 -11.5t-46 -30.5t-26.5 -52.5t-12 -68t-2.5 -87.5q0 -127 32.5 -186.5t125.5 -59.5q25 0 62.5 4t61.5 8l25 4l2 -65 q-88 -17 -151 -17q-66 0 -111 22t-69 65t-34 97t-10 128z" />
<glyph unicode="&#xaa;" horiz-adv-x="749" d="M127 954q0 144 154 156l208 14v47q0 64 -25 90.5t-81 26.5q-31 0 -84.5 -3.5t-90.5 -6.5l-38 -4l-4 59q141 17 217 17q89 0 129.5 -42.5t40.5 -138.5v-274q21 -36 76 -47l-4 -57q-38 1 -62 11t-49 34q-129 -45 -244 -45q-64 0 -103.5 44.5t-39.5 118.5zM195 950 q0 -96 81 -96q41 0 94 9t86 19l33 9v174l-198 -12q-52 -3 -74 -27t-22 -76z" />
<glyph unicode="&#xab;" horiz-adv-x="1017" d="M98 479v74l342 264v-80l-276 -217l276 -239v-84zM522 479v74l342 264v-80l-276 -217l276 -239v-84z" />
<glyph unicode="&#xac;" d="M145 610v70h865v-422h-74v352h-791z" />
<glyph unicode="&#xad;" horiz-adv-x="937" d="M156 541v69h628v-69h-628z" />
<glyph unicode="&#xae;" horiz-adv-x="1325" d="M139 889q0 149 67.5 274t188 198t267.5 73q148 0 268.5 -73t188 -198t67.5 -274t-67.5 -273.5t-188 -197t-268.5 -72.5t-268 72.5t-187.5 197t-67.5 273.5zM205 889q0 -200 130.5 -338.5t326.5 -138.5t327 138.5t131 338.5t-131 339.5t-327 139.5t-326.5 -139.5 t-130.5 -339.5zM453 586v604h190q121 0 176 -40.5t55 -141.5q0 -75 -27.5 -118.5t-92.5 -60.5l133 -243h-72l-135 237h-162v-237h-65zM518 887h164q69 0 98 26.5t29 94.5q0 67 -38.5 92.5t-125.5 25.5h-127v-239z" />
<glyph unicode="&#xaf;" horiz-adv-x="440" d="M-41 1315v65h547v-65h-547z" />
<glyph unicode="&#xb0;" d="M295 1174q0 124 76.5 201t201.5 77t202 -77t77 -201t-77 -200.5t-202 -76.5t-201.5 76.5t-76.5 200.5zM365 1174q0 -96 56.5 -153.5t151.5 -57.5t154 58t59 153t-59 153.5t-154 58.5t-151.5 -58t-56.5 -154z" />
<glyph unicode="&#xb1;" d="M121 102v70h905v-70h-905zM121 631v69h414v283h73v-283h418v-69h-418v-295h-73v295h-414z" />
<glyph unicode="&#xb2;" horiz-adv-x="573" d="M74 979v63l200 220q38 40 57 63.5t36.5 62t17.5 76.5q0 53 -32.5 80t-84.5 27q-31 0 -77 -5.5t-77 -10.5l-30 -5l-4 60q104 26 190 26q187 0 187 -174q0 -68 -29 -119.5t-102 -125.5l-164 -170h309v-68h-397z" />
<glyph unicode="&#xb3;" horiz-adv-x="573" d="M76 983l6 64q111 -19 213 -19q65 0 97 33t32 88q0 127 -123 127h-133v67h133q36 0 70.5 39.5t34.5 90.5q0 48 -27 72t-92 24q-42 0 -91 -4.5t-78 -9.5l-28 -5l-6 64q109 22 201 22q100 0 146 -38.5t46 -124.5q0 -33 -9 -61t-21.5 -44.5t-27 -28.5t-23.5 -16.5t-13 -5.5 q60 -17 86.5 -50.5t26.5 -115.5q0 -190 -201 -190q-44 0 -99 5.5t-88 11.5z" />
<glyph unicode="&#xb4;" horiz-adv-x="548" d="M82 1303l393 196l33 -63l-395 -189z" />
<glyph unicode="&#xb5;" d="M201 -471v1495h71v-528q0 -92 4 -154.5t14.5 -116t28.5 -85t48.5 -54t71 -31t98.5 -8.5q51 0 104 10.5t93 25.5t72 30.5t49 26.5l17 10v874h72v-1024h-72v82q-6 -4 -18 -11t-49 -24t-74.5 -30t-91 -24t-102.5 -11q-101 0 -165 21t-100 71v-545h-71z" />
<glyph unicode="&#xb6;" horiz-adv-x="1206" d="M82 1073q0 159 110 260t271 101h672v-68h-199v-1366h-74v1366h-311v-1366h-74v717h-14q-162 0 -271.5 99t-109.5 257z" />
<glyph unicode="&#xb7;" horiz-adv-x="391" d="M156 553v164h82v-164h-82z" />
<glyph unicode="&#xb8;" horiz-adv-x="538" d="M102 -403l4 57q90 -8 160 -8q99 0 99 94q0 86 -99 86h-110v176h67v-119q114 0 163.5 -30t49.5 -113q0 -78 -45 -115t-123 -37q-40 0 -81.5 2t-62.5 4z" />
<glyph unicode="&#xb9;" horiz-adv-x="573" d="M94 1481l203 137h72v-639h-72v559l-168 -115z" />
<glyph unicode="&#xba;" horiz-adv-x="722" d="M127 1073q0 143 58.5 210t176.5 67t175 -67t57 -210q0 -144 -57 -213t-175 -69t-176.5 69t-58.5 213zM197 1073q0 -117 38.5 -167t126.5 -50t125 50t37 167q0 116 -37 163.5t-125 47.5q-89 0 -127 -47.5t-38 -163.5z" />
<glyph unicode="&#xbb;" horiz-adv-x="1017" d="M154 197v84l276 239l-276 217v80l342 -264v-74zM578 197v84l276 239l-276 217v80l342 -264v-74z" />
<glyph unicode="&#xbc;" horiz-adv-x="1075" d="M80 57l803 1293l61 -39l-803 -1291zM100 1481l203 137h72v-639h-72v559l-168 -115zM549 -25l182 459h78l-178 -454h217v180h74v-180h75v-68h-75v-117h-74v117h-299v63z" />
<glyph unicode="&#xbd;" horiz-adv-x="1064" d="M74 57l803 1293l61 -39l-803 -1291zM115 1481l202 137h72v-639h-72v559l-167 -115zM563 -141l201 219q37 39 56.5 64t36.5 62.5t17 76.5q0 53 -32 79.5t-84 26.5q-31 0 -77.5 -5t-76.5 -10l-31 -5l-4 59q105 27 191 27q186 0 186 -174q0 -68 -29.5 -120t-101.5 -126 l-164 -170h310v-68h-398v64z" />
<glyph unicode="&#xbe;" horiz-adv-x="1112" d="M119 57l803 1293l61 -39l-803 -1291zM119 983l6 64q111 -19 213 -19q65 0 97 33t32 88q0 127 -123 127h-133v67h133q36 0 70.5 39.5t34.5 90.5q0 48 -27 72t-92 24q-42 0 -91 -4.5t-77 -9.5l-29 -5l-6 64q109 22 201 22q100 0 146 -38.5t46 -124.5q0 -32 -9 -59.5 t-20.5 -44t-26.5 -29t-23.5 -17t-14.5 -6.5q59 -16 86 -50.5t27 -115.5q0 -190 -201 -190q-44 0 -99 5.5t-87 11.5zM588 -25l182 459h78l-178 -454h217v180h74v-180h75v-68h-75v-117h-74v117h-299v63z" />
<glyph unicode="&#xbf;" horiz-adv-x="915" d="M88 -102q0 124 37.5 190t169.5 182q46 40 63 55.5t51 51.5t48 59t26.5 56.5t12.5 66.5v78h69q2 -45 2 -84q0 -32 -7.5 -62.5t-27 -61.5t-34 -52.5t-47.5 -54.5t-48.5 -47.5t-54.5 -49.5q-114 -103 -151 -164t-37 -163q0 -142 83 -199t255 -57q44 0 126 14t142 28l61 15 l11 -70q-229 -55 -340 -55q-204 0 -307 75t-103 249zM489 860v164h82v-164h-82z" />
<glyph unicode="&#xc0;" horiz-adv-x="1212" d="M57 0l441 1434h217l440 -1434h-74l-133 440h-684l-133 -440h-74zM287 510h639l-262 854h-115zM362 1825l33 63l393 -196l-30 -56z" />
<glyph unicode="&#xc1;" horiz-adv-x="1212" d="M57 0l441 1434h217l440 -1434h-74l-133 440h-684l-133 -440h-74zM287 510h639l-262 854h-115zM414 1692l393 196l33 -63l-396 -189z" />
<glyph unicode="&#xc2;" horiz-adv-x="1212" d="M57 0l441 1434h217l440 -1434h-74l-133 440h-684l-133 -440h-74zM287 510h639l-262 854h-115zM299 1657l274 256h62l274 -256h-92l-213 196l-211 -196h-94z" />
<glyph unicode="&#xc3;" horiz-adv-x="1212" d="M57 0l441 1434h217l440 -1434h-74l-133 440h-684l-133 -440h-74zM287 510h639l-262 854h-115zM289 1782q10 12 26.5 30.5t58.5 49t72 30.5q47 0 171.5 -60t154.5 -60q16 0 46.5 24.5t52.5 49.5l22 24l22 -58q-9 -12 -24 -29.5t-53 -47t-66 -29.5q-47 0 -171.5 61.5 t-154.5 61.5q-19 0 -53.5 -26.5t-58.5 -53.5l-25 -27z" />
<glyph unicode="&#xc4;" horiz-adv-x="1212" d="M57 0l441 1434h217l440 -1434h-74l-133 440h-684l-133 -440h-74zM287 510h639l-262 854h-115zM369 1716v127h71v-127h-71zM770 1716v127h72v-127h-72z" />
<glyph unicode="&#xc5;" horiz-adv-x="1212" d="M57 0l428 1395q-82 50 -82 159q0 88 54.5 138.5t144.5 50.5t144.5 -50.5t54.5 -138.5q0 -102 -76 -155l430 -1399h-74l-133 440h-684l-133 -440h-74zM287 510h639l-262 854h-115zM471 1554q0 -97 82 -120h96q84 22 84 120q0 61 -34.5 94t-96.5 33t-96.5 -33t-34.5 -94z " />
<glyph unicode="&#xc6;" horiz-adv-x="1800" d="M51 0l514 1434h1131v-70h-764v-590h641v-69h-641v-635h764v-70h-838v440h-565l-160 -440h-82zM317 510h541v854h-235z" />
<glyph unicode="&#xc7;" horiz-adv-x="1116" d="M137 711q0 120 7.5 210.5t27.5 179t56.5 149.5t92 108.5t137.5 70.5t189 23q175 0 379 -39l-6 -72q-200 41 -373 41q-81 0 -145 -16.5t-109 -44.5t-77.5 -75t-52 -98.5t-30.5 -125.5t-14.5 -144.5t-3.5 -166.5q0 -95 4 -166.5t15.5 -143t31.5 -122.5t52.5 -96.5t78 -73 t108 -43t142.5 -15.5q156 0 373 41l6 -69q-188 -38 -356 -41v-99q114 0 163.5 -30t49.5 -113q0 -78 -45 -115t-123 -37q-40 0 -81.5 2t-63.5 4l-21 3l4 57q90 -8 160 -8q48 0 73 21.5t25 72.5q0 86 -98 86h-111v158q-113 5 -195.5 41.5t-134 95.5t-82 151t-42 196t-11.5 243 z" />
<glyph unicode="&#xc8;" horiz-adv-x="1130" d="M188 0v1434h838v-70h-764v-596h641v-70h-641v-628h764v-70h-838zM387 1825l33 63l393 -196l-31 -56z" />
<glyph unicode="&#xc9;" horiz-adv-x="1130" d="M188 0v1434h838v-70h-764v-596h641v-70h-641v-628h764v-70h-838zM393 1692l393 196l33 -63l-395 -189z" />
<glyph unicode="&#xca;" horiz-adv-x="1130" d="M188 0v1434h838v-70h-764v-596h641v-70h-641v-628h764v-70h-838zM291 1657l274 256h62l274 -256h-92l-213 196l-211 -196h-94z" />
<glyph unicode="&#xcb;" horiz-adv-x="1130" d="M188 0v1434h838v-70h-764v-596h641v-70h-641v-628h764v-70h-838zM369 1716v127h71v-127h-71zM770 1716v127h72v-127h-72z" />
<glyph unicode="&#xcc;" horiz-adv-x="450" d="M-37 1825l33 63l393 -196l-31 -56zM188 0v1434h74v-1434h-74z" />
<glyph unicode="&#xcd;" horiz-adv-x="450" d="M35 1692l393 196l33 -63l-395 -189zM188 0v1434h74v-1434h-74z" />
<glyph unicode="&#xce;" horiz-adv-x="450" d="M-92 1657l274 256h62l274 -256h-92l-213 196l-211 -196h-94zM188 0v1434h74v-1434h-74z" />
<glyph unicode="&#xcf;" horiz-adv-x="450" d="M-12 1716v127h71v-127h-71zM188 0v1434h74v-1434h-74zM389 1716v127h72v-127h-72z" />
<glyph unicode="&#xd0;" horiz-adv-x="1333" d="M35 684v70h158v680h532q105 0 188 -38.5t136.5 -103t89 -155t50.5 -189.5t15 -211q0 -113 -15 -215.5t-50.5 -199t-89 -167t-137 -113t-187.5 -42.5h-532v684h-158zM266 70h459q74 0 136 27.5t105 77.5t74.5 113t50 139.5t27 153t8.5 156.5t-8.5 153.5t-27 145.5t-50 130 t-74.5 103t-104.5 70t-136.5 25h-459v-610h363v-70h-363v-614z" />
<glyph unicode="&#xd1;" horiz-adv-x="1361" d="M188 0v1434h174l682 -1364h56v1364h74v-1434h-175l-684 1364h-53v-1364h-74zM367 1782q10 12 26.5 30.5t58.5 49t72 30.5q47 0 171.5 -60t154.5 -60q16 0 46.5 24.5t52.5 49.5l22 24l22 -58q-9 -12 -24 -29.5t-53 -47t-66 -29.5q-47 0 -171.5 61.5t-154.5 61.5 q-19 0 -53.5 -26.5t-58.5 -53.5l-25 -27z" />
<glyph unicode="&#xd2;" horiz-adv-x="1363" d="M133 711q0 147 15 257.5t52.5 204.5t99 153.5t157 92.5t225.5 33t225.5 -32.5t157 -92t99 -153t52.5 -204.5t15 -259q0 -155 -15 -267t-51.5 -203t-99 -146t-157 -84t-226.5 -29q-131 0 -226.5 31t-157.5 88t-99 149t-51.5 202t-14.5 259zM211 711q0 -138 11 -235 t41 -182t82.5 -135.5t136 -79t200.5 -28.5q99 0 172.5 17t125.5 54.5t85.5 88.5t53 129t27 165t7.5 206q0 134 -12 233.5t-43 185t-83.5 139t-135.5 83.5t-197 30q-115 0 -198 -29.5t-135.5 -82.5t-83.5 -139t-42.5 -185t-11.5 -235zM463 1825l33 63l393 -196l-31 -56z" />
<glyph unicode="&#xd3;" horiz-adv-x="1363" d="M133 711q0 147 15 257.5t52.5 204.5t99 153.5t157 92.5t225.5 33t225.5 -32.5t157 -92t99 -153t52.5 -204.5t15 -259q0 -155 -15 -267t-51.5 -203t-99 -146t-157 -84t-226.5 -29q-131 0 -226.5 31t-157.5 88t-99 149t-51.5 202t-14.5 259zM211 711q0 -138 11 -235 t41 -182t82.5 -135.5t136 -79t200.5 -28.5q99 0 172.5 17t125.5 54.5t85.5 88.5t53 129t27 165t7.5 206q0 134 -12 233.5t-43 185t-83.5 139t-135.5 83.5t-197 30q-115 0 -198 -29.5t-135.5 -82.5t-83.5 -139t-42.5 -185t-11.5 -235zM449 1692l393 196l32 -63l-395 -189z " />
<glyph unicode="&#xd4;" horiz-adv-x="1363" d="M133 711q0 147 15 257.5t52.5 204.5t99 153.5t157 92.5t225.5 33t225.5 -32.5t157 -92t99 -153t52.5 -204.5t15 -259q0 -155 -15 -267t-51.5 -203t-99 -146t-157 -84t-226.5 -29q-131 0 -226.5 31t-157.5 88t-99 149t-51.5 202t-14.5 259zM211 711q0 -138 11 -235 t41 -182t82.5 -135.5t136 -79t200.5 -28.5q99 0 172.5 17t125.5 54.5t85.5 88.5t53 129t27 165t7.5 206q0 134 -12 233.5t-43 185t-83.5 139t-135.5 83.5t-197 30q-115 0 -198 -29.5t-135.5 -82.5t-83.5 -139t-42.5 -185t-11.5 -235zM377 1657l274 256h62l274 -256h-92 l-213 196l-211 -196h-94z" />
<glyph unicode="&#xd5;" horiz-adv-x="1363" d="M133 711q0 147 15 257.5t52.5 204.5t99 153.5t157 92.5t225.5 33t225.5 -32.5t157 -92t99 -153t52.5 -204.5t15 -259q0 -155 -15 -267t-51.5 -203t-99 -146t-157 -84t-226.5 -29q-131 0 -226.5 31t-157.5 88t-99 149t-51.5 202t-14.5 259zM211 711q0 -138 11 -235 t41 -182t82.5 -135.5t136 -79t200.5 -28.5q99 0 172.5 17t125.5 54.5t85.5 88.5t53 129t27 165t7.5 206q0 134 -12 233.5t-43 185t-83.5 139t-135.5 83.5t-197 30q-115 0 -198 -29.5t-135.5 -82.5t-83.5 -139t-42.5 -185t-11.5 -235zM360 1782q10 12 27 30.5t59 49t72 30.5 q47 0 171.5 -60t154.5 -60q16 0 46.5 24.5t52.5 49.5l22 24l22 -58q-9 -12 -24 -29.5t-53 -47t-66 -29.5q-47 0 -171.5 61.5t-154.5 61.5q-19 0 -53.5 -26.5t-58.5 -53.5l-25 -27z" />
<glyph unicode="&#xd6;" horiz-adv-x="1363" d="M133 711q0 147 15 257.5t52.5 204.5t99 153.5t157 92.5t225.5 33t225.5 -32.5t157 -92t99 -153t52.5 -204.5t15 -259q0 -155 -15 -267t-51.5 -203t-99 -146t-157 -84t-226.5 -29q-131 0 -226.5 31t-157.5 88t-99 149t-51.5 202t-14.5 259zM211 711q0 -138 11 -235 t41 -182t82.5 -135.5t136 -79t200.5 -28.5q99 0 172.5 17t125.5 54.5t85.5 88.5t53 129t27 165t7.5 206q0 134 -12 233.5t-43 185t-83.5 139t-135.5 83.5t-197 30q-115 0 -198 -29.5t-135.5 -82.5t-83.5 -139t-42.5 -185t-11.5 -235zM446 1716v127h72v-127h-72zM848 1716 v127h72v-127h-72z" />
<glyph unicode="&#xd7;" d="M166 156l360 358l-360 358l49 50l358 -361l359 361l49 -50l-360 -358l360 -358l-49 -50l-359 361l-358 -361z" />
<glyph unicode="&#xd8;" horiz-adv-x="1363" d="M133 711q0 147 15 257.5t52.5 204.5t99 153.5t157 92.5t225.5 33q176 0 291 -59l108 229l62 -25l-113 -241q110 -84 155.5 -242.5t45.5 -402.5q0 -155 -15 -267t-51.5 -203t-99 -146t-157 -84t-226.5 -29q-165 0 -274 47l-119 -252l-62 22l121 260q-120 79 -167.5 237 t-47.5 415zM211 711q0 -231 36.5 -371t133.5 -211l561 1196q-102 57 -260 57q-115 0 -198 -29.5t-135.5 -82.5t-83.5 -139t-42.5 -185t-11.5 -235zM438 94q93 -43 244 -43q99 0 172.5 17t125.5 54.5t85.5 88.5t53 129t27 165t7.5 206q0 214 -35 354.5t-123 218.5z" />
<glyph unicode="&#xd9;" horiz-adv-x="1306" d="M180 401v1033h74v-1033q0 -186 100 -268t289 -82q203 0 306.5 81t103.5 269v1033h73v-1033q0 -223 -121.5 -321t-361.5 -98q-226 0 -344.5 98t-118.5 321zM430 1825l33 63l393 -196l-31 -56z" />
<glyph unicode="&#xda;" horiz-adv-x="1306" d="M180 401v1033h74v-1033q0 -186 100 -268t289 -82q203 0 306.5 81t103.5 269v1033h73v-1033q0 -223 -121.5 -321t-361.5 -98q-226 0 -344.5 98t-118.5 321zM440 1692l394 196l32 -63l-395 -189z" />
<glyph unicode="&#xdb;" horiz-adv-x="1306" d="M180 401v1033h74v-1033q0 -186 100 -268t289 -82q203 0 306.5 81t103.5 269v1033h73v-1033q0 -223 -121.5 -321t-361.5 -98q-226 0 -344.5 98t-118.5 321zM346 1657l275 256h61l274 -256h-92l-213 196l-211 -196h-94z" />
<glyph unicode="&#xdc;" horiz-adv-x="1306" d="M180 401v1033h74v-1033q0 -186 100 -268t289 -82q203 0 306.5 81t103.5 269v1033h73v-1033q0 -223 -121.5 -321t-361.5 -98q-226 0 -344.5 98t-118.5 321zM418 1716v127h71v-127h-71zM819 1716v127h72v-127h-72z" />
<glyph unicode="&#xdd;" horiz-adv-x="1077" d="M35 1434h86l418 -736l417 736h86l-467 -818v-616h-73v616zM389 1692l393 196l33 -63l-395 -189z" />
<glyph unicode="&#xde;" horiz-adv-x="1230" d="M188 0v1434h74v-250h449q222 0 323 -104t101 -328q0 -476 -424 -476h-449v-276h-74zM262 346h449q346 0 346 406q0 188 -81 275t-265 87h-449v-768z" />
<glyph unicode="&#xdf;" horiz-adv-x="1124" d="M162 0v1149q0 206 80.5 285t271.5 79q194 0 271 -65t77 -213q0 -107 -34 -168.5t-115 -97.5q-75 -34 -99 -53.5t-24 -51.5q0 -33 35 -60.5t137 -80.5q81 -41 129.5 -73.5t83 -72.5t48 -86t13.5 -110q0 -210 -94 -304.5t-315 -94.5q-36 0 -95 5t-100 10l-41 5l4 68 q158 -19 232 -19q184 0 257.5 77t73.5 243q0 109 -50 166.5t-197 132.5q-121 62 -159 98t-38 96q0 30 9.5 52.5t34 41.5t47.5 31.5t67 32.5q64 30 88 78t24 135q0 116 -58.5 162.5t-211.5 46.5q-78 0 -127 -12.5t-86 -47.5t-52.5 -98.5t-15.5 -163.5v-1122h-71z" />
<glyph unicode="&#xe0;" horiz-adv-x="1013" d="M98 281q0 133 67.5 206t215.5 88l389 41v107q0 131 -56 190.5t-171 59.5q-67 0 -163.5 -8.5t-159.5 -17.5l-64 -9l-6 68q229 36 393 36q154 0 226.5 -79.5t72.5 -239.5v-590q8 -74 153 -86l-4 -63q-150 0 -211 86q-23 -10 -63.5 -24.5t-149.5 -39t-200 -24.5 q-128 0 -198.5 76t-70.5 223zM174 281q0 -112 50.5 -173t144.5 -61q86 0 186 21t157 42l58 21v420l-381 -39q-117 -12 -166 -67t-49 -164zM272 1436l33 63l393 -196l-30 -56z" />
<glyph unicode="&#xe1;" horiz-adv-x="1013" d="M98 281q0 133 67.5 206t215.5 88l389 41v107q0 131 -56 190.5t-171 59.5q-67 0 -163.5 -8.5t-159.5 -17.5l-64 -9l-6 68q229 36 393 36q154 0 226.5 -79.5t72.5 -239.5v-590q8 -74 153 -86l-4 -63q-150 0 -211 86q-23 -10 -63.5 -24.5t-149.5 -39t-200 -24.5 q-128 0 -198.5 76t-70.5 223zM174 281q0 -112 50.5 -173t144.5 -61q86 0 186 21t157 42l58 21v420l-381 -39q-117 -12 -166 -67t-49 -164zM270 1303l394 196l32 -63l-395 -189z" />
<glyph unicode="&#xe2;" horiz-adv-x="1013" d="M98 281q0 133 67.5 206t215.5 88l389 41v107q0 131 -56 190.5t-171 59.5q-67 0 -163.5 -8.5t-159.5 -17.5l-64 -9l-6 68q229 36 393 36q154 0 226.5 -79.5t72.5 -239.5v-590q8 -74 153 -86l-4 -63q-150 0 -211 86q-23 -10 -63.5 -24.5t-149.5 -39t-200 -24.5 q-128 0 -198.5 76t-70.5 223zM174 281q0 -112 50.5 -173t144.5 -61q86 0 186 21t157 42l58 21v420l-381 -39q-117 -12 -166 -67t-49 -164zM211 1229l248 270h57l250 -270h-88l-189 205l-190 -205h-88z" />
<glyph unicode="&#xe3;" horiz-adv-x="1013" d="M98 281q0 133 67.5 206t215.5 88l389 41v107q0 131 -56 190.5t-171 59.5q-67 0 -163.5 -8.5t-159.5 -17.5l-64 -9l-6 68q229 36 393 36q154 0 226.5 -79.5t72.5 -239.5v-590q8 -74 153 -86l-4 -63q-150 0 -211 86q-23 -10 -63.5 -24.5t-149.5 -39t-200 -24.5 q-128 0 -198.5 76t-70.5 223zM174 281q0 -112 50.5 -173t144.5 -61q86 0 186 21t157 42l58 21v420l-381 -39q-117 -12 -166 -67t-49 -164zM188 1368q11 11 29.5 27t63.5 42.5t75 26.5q43 0 156.5 -54t144.5 -54q16 0 48 21t55 42l24 21l19 -62q-10 -10 -26 -24.5t-56 -39 t-68 -24.5q-43 0 -156.5 55.5t-144.5 55.5q-19 0 -55 -23t-62 -46l-26 -23z" />
<glyph unicode="&#xe4;" horiz-adv-x="1013" d="M98 281q0 133 67.5 206t215.5 88l389 41v107q0 131 -56 190.5t-171 59.5q-67 0 -163.5 -8.5t-159.5 -17.5l-64 -9l-6 68q229 36 393 36q154 0 226.5 -79.5t72.5 -239.5v-590q8 -74 153 -86l-4 -63q-150 0 -211 86q-23 -10 -63.5 -24.5t-149.5 -39t-200 -24.5 q-128 0 -198.5 76t-70.5 223zM174 281q0 -112 50.5 -173t144.5 -61q86 0 186 21t157 42l58 21v420l-381 -39q-117 -12 -166 -67t-49 -164zM270 1307v127h72v-127h-72zM659 1307v127h72v-127h-72z" />
<glyph unicode="&#xe5;" horiz-adv-x="1013" d="M98 281q0 133 67.5 206t215.5 88l389 41v107q0 131 -56 190.5t-171 59.5q-67 0 -163.5 -8.5t-159.5 -17.5l-64 -9l-6 68q229 36 393 36q154 0 226.5 -79.5t72.5 -239.5v-590q8 -74 153 -86l-4 -63q-150 0 -211 86q-23 -10 -63.5 -24.5t-149.5 -39t-200 -24.5 q-128 0 -198.5 76t-70.5 223zM174 281q0 -112 50.5 -173t144.5 -61q86 0 186 21t157 42l58 21v420l-381 -39q-117 -12 -166 -67t-49 -164zM313 1331q0 82 57 138.5t140 56.5q81 0 136.5 -56.5t55.5 -138.5q0 -83 -55 -138.5t-137 -55.5q-84 0 -140.5 55.5t-56.5 138.5z M383 1331q0 -54 36.5 -92.5t90.5 -38.5q52 0 88.5 38.5t36.5 92.5q0 53 -36.5 91t-88.5 38q-53 0 -90 -38t-37 -91z" />
<glyph unicode="&#xe6;" horiz-adv-x="1675" d="M98 281q0 49 7 87t20 67.5t37 51t51.5 37t70 27t86.5 19.5t107 16l293 30v107q0 132 -57 191t-170 59q-68 0 -164 -4.5t-159 -9.5l-62 -5l-4 68q225 20 389 20q235 0 284 -196q100 196 353 196q195 0 292 -116t97 -375v-68h-727q0 -223 69.5 -329.5t241.5 -106.5 q64 0 157 4.5t154 9.5l62 5l4 -66q-229 -18 -379 -18q-202 0 -293 118l-78 -32q-8 -3 -22 -9t-59.5 -21t-92.5 -26t-115 -20.5t-133 -9.5q-127 0 -193.5 75t-66.5 224zM174 281q0 -113 49.5 -173.5t136.5 -60.5q85 0 199 25.5t172 45t96 34.5q-61 120 -61 397l-377 -37 q-114 -10 -164.5 -65t-50.5 -166zM842 549h651q0 231 -75 329.5t-238 98.5q-338 0 -338 -428z" />
<glyph unicode="&#xe7;" horiz-adv-x="878" d="M123 535q0 282 94.5 394.5t325.5 112.5q35 0 96 -5t105 -10l44 -5l-4 -66q-163 21 -241 21q-195 0 -269.5 -98t-74.5 -344q0 -93 5 -159t19.5 -123.5t38.5 -94t62.5 -63t92 -37.5t126.5 -11q35 0 96 4.5t105 9.5l44 5l5 -66q-172 -18 -250 -18q-29 0 -43 2v-101 q114 0 163.5 -30t49.5 -113q0 -78 -45 -115t-123 -37q-40 0 -81.5 2t-63.5 4l-21 3l4 57q90 -8 160 -8q48 0 73 21.5t25 72.5q0 86 -98 86h-111v162q-75 9 -128 34t-88.5 66t-55.5 106.5t-28.5 146t-8.5 194.5z" />
<glyph unicode="&#xe8;" horiz-adv-x="1028" d="M119 512q0 530 413 530q195 0 292.5 -116t97.5 -375v-68h-727q0 -223 69.5 -329.5t241.5 -106.5q64 0 157 4.5t155 9.5l61 5l4 -66q-229 -18 -379 -18q-90 1 -157 24.5t-110.5 66t-70 109.5t-37 146t-10.5 184zM195 549h651q0 230 -75.5 329t-238.5 99q-337 0 -337 -428z M262 1438l33 63l393 -196l-31 -56z" />
<glyph unicode="&#xe9;" horiz-adv-x="1028" d="M119 512q0 530 413 530q195 0 292.5 -116t97.5 -375v-68h-727q0 -223 69.5 -329.5t241.5 -106.5q64 0 157 4.5t155 9.5l61 5l4 -66q-229 -18 -379 -18q-90 1 -157 24.5t-110.5 66t-70 109.5t-37 146t-10.5 184zM195 549h651q0 230 -75.5 329t-238.5 99q-337 0 -337 -428z M350 1303l393 196l33 -63l-395 -189z" />
<glyph unicode="&#xea;" horiz-adv-x="1028" d="M119 512q0 530 413 530q195 0 292.5 -116t97.5 -375v-68h-727q0 -223 69.5 -329.5t241.5 -106.5q64 0 157 4.5t155 9.5l61 5l4 -66q-229 -18 -379 -18q-90 1 -157 24.5t-110.5 66t-70 109.5t-37 146t-10.5 184zM195 549h651q0 230 -75.5 329t-238.5 99q-337 0 -337 -428z M262 1229l248 270h57l250 -270h-88l-188 205l-191 -205h-88z" />
<glyph unicode="&#xeb;" horiz-adv-x="1028" d="M119 512q0 530 413 530q195 0 292.5 -116t97.5 -375v-68h-727q0 -223 69.5 -329.5t241.5 -106.5q64 0 157 4.5t155 9.5l61 5l4 -66q-229 -18 -379 -18q-90 1 -157 24.5t-110.5 66t-70 109.5t-37 146t-10.5 184zM195 549h651q0 230 -75.5 329t-238.5 99q-337 0 -337 -428z M295 1307v127h72v-127h-72zM684 1307v127h72v-127h-72z" />
<glyph unicode="&#xec;" horiz-adv-x="395" d="M-123 1436l33 63l393 -196l-31 -56zM162 0v1024h71v-1024h-71z" />
<glyph unicode="&#xed;" horiz-adv-x="395" d="M88 1303l393 196l33 -63l-395 -189zM162 0h71v1024h-71v-1024z" />
<glyph unicode="&#xee;" horiz-adv-x="395" d="M-80 1229l248 270h57l250 -270h-88l-188 205l-191 -205h-88zM162 0h71v1024h-71v-1024z" />
<glyph unicode="&#xef;" horiz-adv-x="395" d="M-39 1307v127h72v-127h-72zM162 0h71v1024h-71v-1024zM350 1307v127h72v-127h-72z" />
<glyph unicode="&#xf0;" horiz-adv-x="1095" d="M92 438q0 195 113 313.5t305 118.5q71 0 168 -22.5t158 -45.5l61 -22q-5 149 -88.5 284.5t-253.5 238.5l-244 -164l-41 55l217 147q-123 64 -272 109l27 63q177 -53 311 -129l209 142l41 -56l-182 -124q352 -229 352 -619q0 -278 -46.5 -441t-141 -233.5t-253.5 -70.5 q-206 0 -323 119t-117 337zM166 438q0 -187 94.5 -287t271.5 -100q136 0 213.5 59.5t114.5 201.5t39 397q-27 10 -70.5 25.5t-146.5 41t-168 25.5q-162 0 -255 -100t-93 -263z" />
<glyph unicode="&#xf1;" horiz-adv-x="1079" d="M162 0h71v874q7 4 20 11t53.5 25t81 31.5t97 24.5t107.5 11q69 0 114.5 -14t76 -42.5t46 -85t21.5 -126.5t6 -181v-528h72v532q0 104 -5.5 176t-20 132t-38 96.5t-61.5 61t-89 34.5t-122 10q-78 0 -168 -25t-140 -50l-51 -25v82h-71v-1024zM256 1368q11 11 29.5 27 t63.5 42.5t75 26.5q43 0 156.5 -54t144.5 -54q16 0 48 21t55 42l24 21l18 -62q-10 -10 -26 -24.5t-55.5 -39t-67.5 -24.5q-43 0 -156.5 55.5t-144.5 55.5q-19 0 -55 -23t-63 -46l-26 -23z" />
<glyph unicode="&#xf2;" horiz-adv-x="1077" d="M123 530q0 283 94 397.5t322 114.5t321.5 -114.5t93.5 -397.5q0 -162 -17 -261t-64 -166.5t-126.5 -94t-207.5 -26.5t-207.5 26.5t-127 94t-64.5 167t-17 260.5zM199 530q0 -96 4 -159t17 -122t35.5 -93.5t60.5 -61t92.5 -37t130.5 -10.5t130.5 10.5t92.5 37t60.5 61 t35.5 93.5t17 122t4 159q0 176 -31 270.5t-103 135.5t-206 41t-206 -41t-103 -135.5t-31 -270.5zM315 1436l33 63l393 -196l-30 -56z" />
<glyph unicode="&#xf3;" horiz-adv-x="1077" d="M123 530q0 -161 17 -260.5t64.5 -167t127 -94t207.5 -26.5t207.5 26.5t126.5 94t64 166.5t17 261q0 283 -93.5 397.5t-321.5 114.5t-322 -114.5t-94 -397.5zM199 530q0 176 31 270.5t103 135.5t206 41t206 -41t103 -135.5t31 -270.5q0 -96 -4 -159t-17 -122t-35.5 -93.5 t-60.5 -61t-92.5 -37t-130.5 -10.5t-130.5 10.5t-92.5 37t-60.5 61t-35.5 93.5t-17 122t-4 159zM367 1303l393 196l33 -63l-396 -189z" />
<glyph unicode="&#xf4;" horiz-adv-x="1077" d="M123 530q0 -161 17 -260.5t64.5 -167t127 -94t207.5 -26.5t207.5 26.5t126.5 94t64 166.5t17 261q0 283 -93.5 397.5t-321.5 114.5t-322 -114.5t-94 -397.5zM199 530q0 176 31 270.5t103 135.5t206 41t206 -41t103 -135.5t31 -270.5q0 -96 -4 -159t-17 -122t-35.5 -93.5 t-60.5 -61t-92.5 -37t-130.5 -10.5t-130.5 10.5t-92.5 37t-60.5 61t-35.5 93.5t-17 122t-4 159zM262 1229l248 270h57l250 -270h-88l-188 205l-191 -205h-88z" />
<glyph unicode="&#xf5;" horiz-adv-x="1077" d="M123 530q0 -161 17 -260.5t64.5 -167t127 -94t207.5 -26.5t207.5 26.5t126.5 94t64 166.5t17 261q0 283 -93.5 397.5t-321.5 114.5t-322 -114.5t-94 -397.5zM199 530q0 176 31 270.5t103 135.5t206 41t206 -41t103 -135.5t31 -270.5q0 -96 -4 -159t-17 -122t-35.5 -93.5 t-60.5 -61t-92.5 -37t-130.5 -10.5t-130.5 10.5t-92.5 37t-60.5 61t-35.5 93.5t-17 122t-4 159zM233 1368q11 11 29.5 27t63.5 42.5t75 26.5q43 0 156.5 -54t144.5 -54q16 0 48 21t56 42l23 21l19 -62q-10 -10 -26 -24.5t-56 -39t-68 -24.5q-43 0 -156.5 55.5t-144.5 55.5 q-19 0 -55 -23t-62 -46l-26 -23z" />
<glyph unicode="&#xf6;" horiz-adv-x="1077" d="M123 530q0 -161 17 -260.5t64.5 -167t127 -94t207.5 -26.5t207.5 26.5t126.5 94t64 166.5t17 261q0 283 -93.5 397.5t-321.5 114.5t-322 -114.5t-94 -397.5zM199 530q0 176 31 270.5t103 135.5t206 41t206 -41t103 -135.5t31 -270.5q0 -96 -4 -159t-17 -122t-35.5 -93.5 t-60.5 -61t-92.5 -37t-130.5 -10.5t-130.5 10.5t-92.5 37t-60.5 61t-35.5 93.5t-17 122t-4 159zM299 1307v127h72v-127h-72zM688 1307v127h72v-127h-72z" />
<glyph unicode="&#xf7;" d="M119 479v70h909v-70h-909zM535 80v164h77v-164h-77zM535 784v164h77v-164h-77z" />
<glyph unicode="&#xf8;" horiz-adv-x="1077" d="M123 530q0 283 94 397.5t322 114.5q109 0 176 -22l90 219l61 -22l-92 -220q95 -51 137.5 -162.5t42.5 -304.5q0 -162 -17 -261t-64 -166.5t-126.5 -94t-207.5 -26.5q-101 0 -172 18l-95 -233l-61 20l94 231q-104 48 -143 165.5t-39 346.5zM199 530q0 -205 26 -305.5 t109 -142.5l356 876q-65 19 -151 19q-134 0 -206 -41t-103 -135.5t-31 -270.5zM391 61q55 -14 148 -14q76 0 130.5 10.5t92.5 37t60.5 61t35.5 93.5t17 122t4 159q0 171 -29.5 266.5t-99.5 137.5z" />
<glyph unicode="&#xf9;" horiz-adv-x="1056" d="M152 492v532h71v-528q0 -111 6 -181t21.5 -126.5t46 -85t76 -42.5t114.5 -14q51 0 104.5 10.5t93 25.5t72 30.5t49.5 26.5l17 10v874h72v-1024h-72v82q-7 -4 -18.5 -11t-48.5 -24t-75 -30t-91.5 -24t-102.5 -11q-86 0 -142.5 16t-95.5 48.5t-59.5 95t-29 144t-8.5 206.5z M256 1436l33 63l393 -196l-31 -56z" />
<glyph unicode="&#xfa;" horiz-adv-x="1056" d="M152 492q0 -125 8.5 -206.5t29 -144t59.5 -95t95.5 -48.5t142.5 -16q78 0 162 25t129 50l45 25v-82h72v1024h-72v-874q-6 -4 -17.5 -11t-48 -25t-74 -31.5t-91.5 -24.5t-105 -11q-69 0 -114.5 14t-76 42.5t-46 85t-21.5 126.5t-6 181v528h-71v-532zM352 1303l393 196 l33 -63l-395 -189z" />
<glyph unicode="&#xfb;" horiz-adv-x="1056" d="M152 492q0 -125 8.5 -206.5t29 -144t59.5 -95t95.5 -48.5t142.5 -16q78 0 162 25t129 50l45 25v-82h72v1024h-72v-874q-6 -4 -17.5 -11t-48 -25t-74 -31.5t-91.5 -24.5t-105 -11q-69 0 -114.5 14t-76 42.5t-46 85t-21.5 126.5t-6 181v528h-71v-532zM248 1229l248 270h57 l250 -270h-88l-189 205l-190 -205h-88z" />
<glyph unicode="&#xfc;" horiz-adv-x="1056" d="M152 492q0 -125 8.5 -206.5t29 -144t59.5 -95t95.5 -48.5t142.5 -16q78 0 162 25t129 50l45 25v-82h72v1024h-72v-874q-6 -4 -17.5 -11t-48 -25t-74 -31.5t-91.5 -24.5t-105 -11q-69 0 -114.5 14t-76 42.5t-46 85t-21.5 126.5t-6 181v528h-71v-532zM305 1307v127h72v-127 h-72zM694 1307v127h72v-127h-72z" />
<glyph unicode="&#xfd;" horiz-adv-x="964" d="M63 1024h76l301 -958h84l303 958h76l-469 -1495h-76l148 471h-125zM358 1303l394 196l32 -63l-395 -189z" />
<glyph unicode="&#xfe;" horiz-adv-x="1054" d="M162 -471v1966h71v-534q19 9 52.5 22.5t126.5 36t174 22.5q84 0 143.5 -19.5t99.5 -57t63 -100.5t32.5 -141.5t9.5 -188.5q0 -100 -8 -174.5t-28.5 -139t-54.5 -107t-85.5 -73.5t-123.5 -45t-167 -14q-37 0 -95.5 3t-98.5 6l-40 3v-465h-71zM233 59q160 -12 232 -12 q73 0 129.5 10t98 28t70.5 49.5t48 68t29 89.5t14 108t4 130q0 123 -10.5 201t-40 136.5t-83.5 84t-138 25.5q-81 0 -169 -20.5t-136 -40.5l-48 -21v-836z" />
<glyph unicode="&#xff;" horiz-adv-x="964" d="M63 1024h76l301 -958h84l303 958h76l-469 -1495h-76l148 471h-125zM248 1307v127h71v-127h-71zM637 1307v127h72v-127h-72z" />
<glyph unicode="&#x152;" horiz-adv-x="1925" d="M133 707q0 148 15 259t52.5 206t99 154.5t157 92.5t225.5 33q208 0 322 -18h817v-74h-744v-586h621v-74h-621v-626h744v-76h-815q-172 -16 -324 -16q-131 0 -226.5 31t-157.5 87.5t-99 148.5t-51.5 201t-14.5 257zM211 711q0 -138 11 -235t41 -182t82.5 -135.5t136 -79 t200.5 -28.5q94 0 322 19v1288q-288 24 -322 24q-115 0 -198 -29.5t-135.5 -82.5t-83.5 -139t-42.5 -185t-11.5 -235z" />
<glyph unicode="&#x153;" horiz-adv-x="1787" d="M123 535q0 191 42.5 301t132.5 158t245 48q151 0 244 -58.5t133 -186.5q92 245 372 245q195 0 292 -116t97 -375v-68h-727q0 -222 70 -329t242 -107q64 0 157 4.5t154 9.5l61 5l4 -66q-228 -18 -378 -18q-140 0 -223 55.5t-123 163.5q-37 -115 -125 -167t-250 -52 q-129 0 -209.5 27.5t-128 96t-65 168.5t-17.5 261zM199 535q0 -70 2.5 -122t9 -102.5t18 -85t29.5 -66t43.5 -51t60.5 -34.5t79.5 -21t101.5 -6q75 0 129.5 12.5t91.5 41t60 64.5t35 95.5t16 120t4 149.5q0 241 -81 344t-255 103q-134 0 -207 -39.5t-105 -133.5t-32 -269z M954 549h652q0 230 -75.5 329t-238.5 99q-338 0 -338 -428z" />
<glyph unicode="&#x178;" horiz-adv-x="1077" d="M35 1434h86l418 -736l417 736h86l-467 -818v-616h-73v616zM301 1716v127h72v-127h-72zM702 1716v127h72v-127h-72z" />
<glyph unicode="&#x2c6;" horiz-adv-x="440" d="M-31 1229l248 270h57l250 -270h-88l-188 205l-191 -205h-88z" />
<glyph unicode="&#x2dc;" horiz-adv-x="440" d="M-72 1368q11 11 29.5 27t63.5 42.5t75 26.5q43 0 156.5 -54t144.5 -54q16 0 48 21t55 42l24 21l19 -62q-10 -10 -26 -24.5t-56 -39t-68 -24.5q-43 0 -156.5 55.5t-144.5 55.5q-19 0 -55 -23t-62 -46l-26 -23z" />
<glyph unicode="&#x2000;" horiz-adv-x="956" />
<glyph unicode="&#x2001;" horiz-adv-x="1913" />
<glyph unicode="&#x2002;" horiz-adv-x="956" />
<glyph unicode="&#x2003;" horiz-adv-x="1913" />
<glyph unicode="&#x2004;" horiz-adv-x="637" />
<glyph unicode="&#x2005;" horiz-adv-x="478" />
<glyph unicode="&#x2006;" horiz-adv-x="318" />
<glyph unicode="&#x2007;" horiz-adv-x="318" />
<glyph unicode="&#x2008;" horiz-adv-x="239" />
<glyph unicode="&#x2009;" horiz-adv-x="382" />
<glyph unicode="&#x200a;" horiz-adv-x="106" />
<glyph unicode="&#x2010;" horiz-adv-x="937" d="M156 541v69h628v-69h-628z" />
<glyph unicode="&#x2011;" horiz-adv-x="937" d="M156 541v69h628v-69h-628z" />
<glyph unicode="&#x2012;" horiz-adv-x="937" d="M156 541v69h628v-69h-628z" />
<glyph unicode="&#x2013;" horiz-adv-x="1316" d="M147 516v70h1024v-70h-1024z" />
<glyph unicode="&#x2014;" horiz-adv-x="2340" d="M147 516v70h2048v-70h-2048z" />
<glyph unicode="&#x2018;" horiz-adv-x="395" d="M127 1079l100 410h60l-82 -410h-78z" />
<glyph unicode="&#x2019;" horiz-adv-x="391" d="M129 1079l82 410h78l-101 -410h-59z" />
<glyph unicode="&#x201a;" horiz-adv-x="393" d="M88 -174l100 410h60l-82 -410h-78z" />
<glyph unicode="&#x201c;" horiz-adv-x="667" d="M127 1079l100 410h60l-82 -410h-78zM399 1079l101 410h59l-82 -410h-78z" />
<glyph unicode="&#x201d;" horiz-adv-x="686" d="M129 1079l82 410h78l-101 -410h-59zM424 1079l82 410h78l-101 -410h-59z" />
<glyph unicode="&#x201e;" horiz-adv-x="649" d="M84 -186l100 409h60l-82 -409h-78zM346 -186l100 409h60l-82 -409h-78z" />
<glyph unicode="&#x2022;" horiz-adv-x="999" d="M244 225v594h512v-594h-512z" />
<glyph unicode="&#x2026;" horiz-adv-x="1429" d="M154 0v164h82v-164h-82zM674 0v164h82v-164h-82zM1194 0v164h82v-164h-82z" />
<glyph unicode="&#x202f;" horiz-adv-x="382" />
<glyph unicode="&#x2039;" horiz-adv-x="593" d="M98 479v74l342 264v-80l-276 -217l276 -239v-84z" />
<glyph unicode="&#x203a;" horiz-adv-x="593" d="M154 197v84l276 239l-276 217v80l342 -264v-74z" />
<glyph unicode="&#x205f;" horiz-adv-x="478" />
<glyph unicode="&#x20ac;" d="M66 502v69h129v101q0 90 2 133h-131v69h135q11 120 38 206.5t80.5 154t142.5 101.5t214 34q177 0 358 -37l-6 -67q-178 39 -352 39q-108 0 -184 -29t-120.5 -87.5t-67 -134t-30.5 -180.5h656v-69h-660q-2 -43 -2 -133q0 -70 2 -101h660v-69h-658q8 -113 30 -192 t67 -140.5t121 -91t186 -29.5q146 0 352 37l6 -66q-192 -36 -358 -36q-126 0 -215 34t-143 103t-81.5 160.5t-37.5 220.5h-133z" />
<glyph unicode="&#x2122;" horiz-adv-x="1411" d="M203 1208v64h409v-64h-170v-528h-67v528h-172zM684 678v594h102l172 -496l179 496h102v-594h-65v528l-181 -506h-71l-172 506v-528h-66z" />
<glyph unicode="&#x25fc;" horiz-adv-x="1024" d="M0 0v1024h1024v-1024h-1024z" />
</font>
</defs>
</svg>
